<svg width="170" height="170" viewBox="0 0 170 170" fill="none" xmlns="http://www.w3.org/2000/svg">
<rect width="170" height="170" rx="25" fill="#A3F7BF"/>
<path d="M43.457 125V117.863H47.318C48.722 117.863 49.931 117.707 50.945 117.395C52.037 117.083 52.856 116.42 53.402 115.406C53.948 114.392 54.221 112.871 54.221 110.843V55.151C54.221 53.201 53.948 51.797 53.402 50.939C52.856 50.003 52.115 49.379 51.179 49.067C50.321 48.755 49.385 48.599 48.371 48.599H43.457V41.462H72.824L113.657 95.165V55.151C113.657 53.513 113.384 52.226 112.838 51.29C112.37 50.354 111.707 49.691 110.849 49.301C110.069 48.833 109.133 48.599 108.041 48.599H103.01V41.462H134.366V48.599H129.335C128.165 48.599 127.151 48.833 126.293 49.301C125.435 49.769 124.772 50.51 124.304 51.524C123.836 52.538 123.602 53.903 123.602 55.619V125H111.083L64.166 62.639V110.843C64.166 112.871 64.322 114.392 64.634 115.406C65.024 116.42 65.648 117.083 66.506 117.395C67.364 117.707 68.456 117.863 69.782 117.863H74.813V125H43.457Z" fill="#27323A"/>
</svg>
