<svg xmlns="http://www.w3.org/2000/svg" width="141" height="35" fill="none" viewBox="0 0 141 35"><path fill="#A3F7BF" d="M49.546 28V26.414H50.404C50.716 26.414 50.9847 26.3793 51.21 26.31C51.4527 26.2407 51.6347 26.0933 51.756 25.868C51.8773 25.6427 51.938 25.3047 51.938 24.854V12.478C51.938 12.0447 51.8773 11.7327 51.756 11.542C51.6347 11.334 51.47 11.1953 51.262 11.126C51.0713 11.0567 50.8633 11.022 50.638 11.022H49.546V9.436H56.072L65.146 21.37V12.478C65.146 12.114 65.0853 11.828 64.964 11.62C64.86 11.412 64.7127 11.2647 64.522 11.178C64.3487 11.074 64.1407 11.022 63.898 11.022H62.78V9.436H69.748V11.022H68.63C68.37 11.022 68.1447 11.074 67.954 11.178C67.7633 11.282 67.616 11.4467 67.512 11.672C67.408 11.8973 67.356 12.2007 67.356 12.582V28H64.574L54.148 14.142V24.854C54.148 25.3047 54.1827 25.6427 54.252 25.868C54.3387 26.0933 54.4773 26.2407 54.668 26.31C54.8587 26.3793 55.1013 26.414 55.396 26.414H56.514V28H49.546ZM78.2153 28.26C75.9793 28.26 74.2199 27.6533 72.9373 26.44C71.6546 25.2267 71.0133 23.398 71.0133 20.954C71.0133 18.51 71.6286 16.69 72.8593 15.494C74.0899 14.2807 75.9013 13.674 78.2933 13.674C80.5293 13.674 82.2886 14.2807 83.5713 15.494C84.8539 16.69 85.4953 18.51 85.4953 20.954C85.4953 23.398 84.8799 25.2267 83.6493 26.44C82.4186 27.6533 80.6073 28.26 78.2153 28.26ZM78.2673 26.414C78.7873 26.414 79.2033 26.206 79.5153 25.79C79.8273 25.374 80.0439 24.7587 80.1653 23.944C80.3039 23.1293 80.3733 22.1327 80.3733 20.954C80.3733 19.758 80.3039 18.7613 80.1653 17.964C80.0266 17.1493 79.8013 16.5427 79.4893 16.144C79.1773 15.7453 78.7613 15.546 78.2413 15.546C77.7213 15.546 77.3053 15.7453 76.9933 16.144C76.6986 16.5427 76.4819 17.1493 76.3433 17.964C76.2219 18.7613 76.1613 19.758 76.1613 20.954C76.1613 22.1327 76.2306 23.1293 76.3693 23.944C76.5079 24.7587 76.7246 25.374 77.0193 25.79C77.3313 26.206 77.7473 26.414 78.2673 26.414ZM93.4421 28.26C92.1075 28.26 91.0415 27.948 90.2441 27.324C89.4641 26.7 89.0741 25.6253 89.0741 24.1V16.04H87.1501V14.506C87.8955 14.506 88.5108 14.3673 88.9961 14.09C89.4815 13.7953 89.8455 13.5093 90.0881 13.232C90.3308 12.9893 90.5561 12.66 90.7641 12.244C90.9895 11.828 91.1628 11.3513 91.2841 10.814H94.1441V14.064H97.4201V16.04H94.1441V23.58C94.1441 24.2733 94.2395 24.7847 94.4301 25.114C94.6381 25.4433 95.0541 25.608 95.6781 25.608C96.0248 25.608 96.3715 25.582 96.7181 25.53C97.0648 25.478 97.3768 25.4173 97.6541 25.348V27.428C97.3421 27.584 96.8308 27.766 96.1201 27.974C95.4095 28.1647 94.5168 28.26 93.4421 28.26ZM98.3909 28V26.414H98.5209C98.9195 26.414 99.2489 26.3707 99.5089 26.284C99.7862 26.1973 99.9942 26.024 100.133 25.764C100.289 25.4867 100.367 25.0793 100.367 24.542V17.418C100.367 16.898 100.306 16.5167 100.185 16.274C100.081 16.014 99.9075 15.8493 99.6649 15.78C99.4222 15.6933 99.1102 15.65 98.7289 15.65H98.6249V14.064H104.683L105.229 16.482H105.359C105.654 15.806 105.992 15.2687 106.373 14.87C106.754 14.454 107.196 14.1593 107.699 13.986C108.202 13.8127 108.791 13.726 109.467 13.726C110.49 13.726 111.218 13.9773 111.651 14.48C112.102 14.9653 112.327 15.572 112.327 16.3C112.327 17.2707 111.972 17.964 111.261 18.38C110.55 18.796 109.614 19.004 108.453 19.004C108.453 18.5187 108.427 18.1113 108.375 17.782C108.323 17.4527 108.219 17.2013 108.063 17.028C107.907 16.8373 107.664 16.742 107.335 16.742C107.023 16.742 106.746 16.8547 106.503 17.08C106.278 17.3053 106.087 17.6173 105.931 18.016C105.775 18.3973 105.654 18.8307 105.567 19.316C105.48 19.784 105.437 20.2693 105.437 20.772V24.672C105.437 25.1747 105.498 25.556 105.619 25.816C105.758 26.0587 105.948 26.2233 106.191 26.31C106.434 26.3793 106.711 26.414 107.023 26.414H107.933V28H98.3909ZM113.017 28V26.414H113.329C113.658 26.414 113.944 26.3533 114.187 26.232C114.43 26.1107 114.62 25.9113 114.759 25.634C114.898 25.3567 114.967 24.9753 114.967 24.49V17.366C114.967 16.9327 114.889 16.5947 114.733 16.352C114.594 16.1093 114.404 15.936 114.161 15.832C113.918 15.7107 113.641 15.65 113.329 15.65H112.835V14.064H120.011V24.594C120.011 25.0447 120.08 25.4087 120.219 25.686C120.358 25.946 120.548 26.1367 120.791 26.258C121.051 26.362 121.337 26.414 121.649 26.414H121.935V28H113.017ZM117.359 11.906C116.579 11.906 115.92 11.7327 115.383 11.386C114.863 11.022 114.603 10.5107 114.603 9.852C114.603 9.14133 114.863 8.62133 115.383 8.292C115.92 7.96267 116.579 7.798 117.359 7.798C118.104 7.798 118.754 7.96267 119.309 8.292C119.864 8.62133 120.141 9.14133 120.141 9.852C120.141 10.5107 119.864 11.022 119.309 11.386C118.754 11.7327 118.104 11.906 117.359 11.906ZM122.87 28V26.414H123.104C123.52 26.414 123.867 26.362 124.144 26.258C124.439 26.154 124.716 25.9807 124.976 25.738C125.236 25.478 125.548 25.1487 125.912 24.75L129.214 21.006L125.938 17.028C125.696 16.716 125.444 16.4647 125.184 16.274C124.942 16.066 124.699 15.91 124.456 15.806C124.214 15.702 123.962 15.65 123.702 15.65H123.364V14.064H132.516V15.65H132.412C131.892 15.65 131.546 15.728 131.372 15.884C131.199 16.0227 131.112 16.196 131.112 16.404C131.112 16.5773 131.156 16.7593 131.242 16.95C131.329 17.1407 131.485 17.3573 131.71 17.6L132.984 18.952L133.998 17.808C134.206 17.5653 134.38 17.34 134.518 17.132C134.674 16.9067 134.752 16.6813 134.752 16.456C134.752 16.144 134.648 15.936 134.44 15.832C134.232 15.7107 133.955 15.65 133.608 15.65H133.504V14.064H139.64V15.65H139.406C139.077 15.65 138.791 15.702 138.548 15.806C138.306 15.91 138.054 16.092 137.794 16.352C137.552 16.5947 137.231 16.9327 136.832 17.366L134.102 20.382L137.924 25.036C138.202 25.348 138.453 25.608 138.678 25.816C138.904 26.024 139.129 26.18 139.354 26.284C139.58 26.3707 139.796 26.414 140.004 26.414H140.342V28H130.93V26.414H131.06C131.58 26.414 131.97 26.3447 132.23 26.206C132.49 26.05 132.62 25.8333 132.62 25.556C132.62 25.3653 132.568 25.14 132.464 24.88C132.36 24.62 132.083 24.2473 131.632 23.762L130.332 22.358L128.694 24.412C128.538 24.6027 128.4 24.7933 128.278 24.984C128.157 25.1747 128.096 25.3653 128.096 25.556C128.096 25.8333 128.218 26.05 128.46 26.206C128.703 26.3447 129.11 26.414 129.682 26.414H129.786V28H122.87Z"/><rect width="33" height="33" y="1" fill="#A3F7BF" rx="5"/><path fill="#1C252B" d="M8.42 25V23.78H9.08C9.32 23.78 9.52667 23.7533 9.7 23.7C9.88667 23.6467 10.0267 23.5333 10.12 23.36C10.2133 23.1867 10.26 22.9267 10.26 22.58V13.06C10.26 12.7267 10.2133 12.4867 10.12 12.34C10.0267 12.18 9.9 12.0733 9.74 12.02C9.59333 11.9667 9.43333 11.94 9.26 11.94H8.42V10.72H13.44L20.42 19.9V13.06C20.42 12.78 20.3733 12.56 20.28 12.4C20.2 12.24 20.0867 12.1267 19.94 12.06C19.8067 11.98 19.6467 11.94 19.46 11.94H18.6V10.72H23.96V11.94H23.1C22.9 11.94 22.7267 11.98 22.58 12.06C22.4333 12.14 22.32 12.2667 22.24 12.44C22.16 12.6133 22.12 12.8467 22.12 13.14V25H19.98L11.96 14.34V22.58C11.96 22.9267 11.9867 23.1867 12.04 23.36C12.1067 23.5333 12.2133 23.6467 12.36 23.7C12.5067 23.7533 12.6933 23.78 12.92 23.78H13.78V25H8.42Z"/></svg>